{
	"asset":{
		"generator":"Khronos glTF Blender I/O v3.6.27",
		"version":"2.0"
	},
	"extensionsUsed":[
		"KHR_materials_specular",
		"KHR_materials_ior"
	],
	"scene":0,
	"scenes":[
		{
			"name":"Scene",
			"nodes":[
				0
			]
		}
	],
	"nodes":[
		{
			"mesh":0,
			"name":"Aster_Small_1__Cube.002",
			"rotation":[
				0.70710688829422,
				0,
				0,
				0.7071066498756409
			],
			"scale":[
				2.4089648723602295,
				3.0767672061920166,
				3.422628879547119
			],
			"translation":[
				0.00967174768447876,
				-0.21719685196876526,
				-0.024308163672685623
			]
		}
	],
	"materials":[
		{
			"doubleSided":true,
			"extensions":{
				"KHR_materials_specular":{
					"specularColorFactor":[
						0,
						0,
						0
					]
				},
				"KHR_materials_ior":{
					"ior":1.4500000476837158
				}
			},
			"name":"Aster_Small_1_.002",
			"pbrMetallicRoughness":{
				"baseColorFactor":[
					0.800000011920929,
					0.800000011920929,
					0.800000011920929,
					1
				],
				"metallicFactor":0
			}
		}
	],
	"meshes":[
		{
			"name":"Aster_Small_1__Cube.002",
			"primitives":[
				{
					"attributes":{
						"POSITION":0,
						"NORMAL":1,
						"TEXCOORD_0":2,
						"TANGENT":3
					},
					"indices":4,
					"material":0
				}
			]
		}
	],
	"accessors":[
		{
			"bufferView":0,
			"componentType":5126,
			"count":881,
			"max":[
				0.8443490266799927,
				0.682794988155365,
				0.5154860019683838
			],
			"min":[
				-0.8321639895439148,
				-0.6618059873580933,
				-0.7245780229568481
			],
			"type":"VEC3"
		},
		{
			"bufferView":1,
			"componentType":5126,
			"count":881,
			"type":"VEC3"
		},
		{
			"bufferView":2,
			"componentType":5126,
			"count":881,
			"type":"VEC2"
		},
		{
			"bufferView":3,
			"componentType":5126,
			"count":881,
			"type":"VEC4"
		},
		{
			"bufferView":4,
			"componentType":5123,
			"count":4224,
			"type":"SCALAR"
		}
	],
	"bufferViews":[
		{
			"buffer":0,
			"byteLength":10572,
			"byteOffset":0,
			"target":34962
		},
		{
			"buffer":0,
			"byteLength":10572,
			"byteOffset":10572,
			"target":34962
		},
		{
			"buffer":0,
			"byteLength":7048,
			"byteOffset":21144,
			"target":34962
		},
		{
			"buffer":0,
			"byteLength":14096,
			"byteOffset":28192,
			"target":34962
		},
		{
			"buffer":0,
			"byteLength":8448,
			"byteOffset":42288,
			"target":34963
		}
	],
	"buffers":[
		{
			"byteLength":50736,
			"uri":"data:application/octet-stream;base64,"
		}
	]
}
